<?xml version="1.0" encoding="utf-8"?>
<!-- Generator: Adobe Illustrator 26.5.0, SVG Export Plug-In . SVG Version: 6.00 Build 0)  -->
<svg version="1.2" baseProfile="tiny" id="g-Attendance_plot-Artboard_1-Layer-img" xmlns="http://www.w3.org/2000/svg" xmlns:xlink="http://www.w3.org/1999/xlink"
	 x="0px" y="0px" viewBox="0 0 1200 711.123" overflow="visible" xml:space="preserve">
<g>
	
		<line fill="none" stroke="#CCCCCC" stroke-width="1.07" stroke-linejoin="round" stroke-miterlimit="10" x1="103.06" y1="79.646" x2="1040.44" y2="79.646"/>
	
		<line fill="none" stroke="#CCCCCC" stroke-width="1.07" stroke-linejoin="round" stroke-miterlimit="10" x1="103.06" y1="142.996" x2="1040.44" y2="142.996"/>
	
		<line fill="none" stroke="#CCCCCC" stroke-width="1.07" stroke-linejoin="round" stroke-miterlimit="10" x1="103.06" y1="209.616" x2="1040.44" y2="209.616"/>
	
		<line fill="none" stroke="#CCCCCC" stroke-width="1.07" stroke-linejoin="round" stroke-miterlimit="10" x1="103.06" y1="276.236" x2="1040.44" y2="276.236"/>
	
		<line fill="none" stroke="#CCCCCC" stroke-width="1.07" stroke-linejoin="round" stroke-miterlimit="10" x1="103.06" y1="342.846" x2="1040.44" y2="342.846"/>
	
		<line fill="none" stroke="#CCCCCC" stroke-width="1.07" stroke-linejoin="round" stroke-miterlimit="10" x1="103.06" y1="409.466" x2="1040.44" y2="409.466"/>
	
		<line fill="none" stroke="#CCCCCC" stroke-width="1.07" stroke-linejoin="round" stroke-miterlimit="10" x1="103.06" y1="476.086" x2="1040.44" y2="476.086"/>
	
		<polyline id="Attendance_x5F_2017_00000183928859295372093870000007771584670627833475_" fill="none" stroke="#BE5500" stroke-width="2" stroke-linecap="round" stroke-linejoin="round" stroke-miterlimit="10" points="
		175.67,473.086 277.69,147.666 319.7,499.896 337.71,480.916 349.71,488.576 589.76,389.316 709.78,474.086 715.78,457.436 
		751.79,464.096 757.79,464.596 847.81,450.266 853.81,484.576 	"/>
	
		<polyline id="Attendance_x5F_2018_00000178184052797599280050000002986023897031010694_" fill="none" stroke="#CD8D00" stroke-width="2" stroke-linecap="round" stroke-linejoin="round" stroke-miterlimit="10" points="
		175.67,479.746 229.68,484.746 313.7,109.356 457.73,450.766 481.73,483.416 625.76,375.826 661.77,457.596 667.77,423.956 
		703.78,454.936 709.78,420.626 835.8,431.616 841.81,370.826 	"/>
	
		<polyline id="Attendance_x5F_2019_00000042720760098223897290000017020450695179122823_" fill="none" stroke="#029D4A" stroke-width="2" stroke-linecap="round" stroke-linejoin="round" stroke-miterlimit="10" points="
		145.67,484.246 163.67,457.266 283.7,482.576 319.7,124.016 337.71,483.246 409.72,480.916 493.74,444.936 577.75,405.966 
		655.77,416.296 661.77,429.116 739.79,479.586 745.79,396.306 865.81,337.356 871.81,365.336 	"/>
	
		<polyline id="Attendance_x5F_2021_00000176005711314192085940000007165166071107513000_" fill="none" stroke="#02659D" stroke-width="2" stroke-linecap="round" stroke-linejoin="round" stroke-miterlimit="10" points="
		157.67,474.086 247.69,480.586 295.7,454.096 349.71,430.116 361.71,483.576 625.76,525.216 763.79,372.326 769.79,389.816 
		793.8,224.106 811.8,423.286 925.82,457.436 973.83,363.666 997.84,197.626 	"/>
	
		<polyline id="Attendance_x5F_2022_00000016051520210594473900000015449437240538133419_" fill="none" stroke="#8F65AC" stroke-width="2" stroke-linecap="round" stroke-linejoin="round" stroke-miterlimit="10" points="
		181.67,390.646 289.7,477.246 301.7,465.426 451.73,447.436 553.75,355.006 595.76,348.346 637.76,320.366 673.77,191.126 
		679.77,100.866 721.78,295.386 853.81,109.356 931.82,443.946 949.83,380.326 973.83,286.726 985.83,261.406 	"/>
	
		<polyline id="Attendance_x5F_2023_00000116230489419724761290000015077773318416423329_" fill="none" stroke="#BE6495" stroke-width="2" stroke-linecap="round" stroke-linejoin="round" stroke-miterlimit="10" points="
		163.67,374.326 187.68,205.116 199.68,455.436 253.69,393.476 277.69,150.156 301.7,372.166 319.7,391.646 343.71,388.816 
		505.74,342.516 	"/>
	<rect x="60" y="74.166" fill="none" width="1080" height="504"/>
	
		<line fill="none" stroke="#333333" stroke-width="1.07" stroke-linejoin="round" stroke-miterlimit="10" x1="100.32" y1="542.706" x2="103.06" y2="542.706"/>
	
		<line fill="none" stroke="#000000" stroke-width="1.07" stroke-linejoin="round" stroke-miterlimit="10" x1="103.06" y1="542.706" x2="1040.44" y2="542.706"/>
	
		<line fill="none" stroke="#333333" stroke-width="1.07" stroke-linejoin="round" stroke-miterlimit="10" x1="109.66" y1="549.176" x2="109.66" y2="542.706"/>
	
		<line fill="none" stroke="#333333" stroke-width="1.07" stroke-linejoin="round" stroke-miterlimit="10" x1="289.7" y1="549.176" x2="289.7" y2="542.706"/>
	
		<line fill="none" stroke="#333333" stroke-width="1.07" stroke-linejoin="round" stroke-miterlimit="10" x1="475.73" y1="549.176" x2="475.73" y2="542.706"/>
	
		<line fill="none" stroke="#333333" stroke-width="1.07" stroke-linejoin="round" stroke-miterlimit="10" x1="661.77" y1="549.176" x2="661.77" y2="542.706"/>
	
		<line fill="none" stroke="#333333" stroke-width="1.07" stroke-linejoin="round" stroke-miterlimit="10" x1="835.8" y1="549.176" x2="835.8" y2="542.706"/>
	
		<line fill="none" stroke="#333333" stroke-width="1.07" stroke-linejoin="round" stroke-miterlimit="10" x1="1021.84" y1="549.176" x2="1021.84" y2="542.706"/>
	
		<rect id="Legend_x5F_2017_00000148639624678642405910000004471321519543979944_" x="1070.232" y="90.119" fill="#BE5500" width="19.5" height="19.5"/>
	
		<rect id="Legend_x5F_2018_00000036934032545883383840000002633829258958066838_" x="1070.232" y="116.769" fill="#CD8D00" width="19.5" height="19.5"/>
	
		<rect id="Legend_x5F_2019_00000072985914059059050920000016124084261987906440_" x="1070.232" y="143.419" fill="#029D4A" width="19.5" height="19.5"/>
	
		<rect id="Legend_x5F_2021_00000083065632571336263200000003142161108239064223_" x="1070.232" y="170.069" fill="#02659D" width="19.5" height="19.5"/>
	
		<rect id="Legend_x5F_2022_00000003101016416565447960000008458934224495415231_" x="1070.232" y="196.719" fill="#8F65AC" width="19.5" height="19.5"/>
	
		<rect id="Legend_x5F_2023_00000177465107189664274480000006350259533181222057_" x="1070.232" y="223.369" fill="#BE6495" width="19.5" height="19.5"/>
	<g id="Education_x5F_2017_x5F_arrow_00000095306026979301200540000010117474834242292909_">
		<path fill="none" stroke="#000000" stroke-miterlimit="10" d="M231.313,117.988c1.278,3.815,3.902,9.815,9.385,15.28
			c8.11,8.084,18,10.537,24.416,11.251"/>
		<g>
			<path d="M271.143,144.783c-2.893,0.897-6.509,2.5-8.794,4.282l1.977-4.655l-1.458-4.842
				C264.945,141.589,268.365,143.577,271.143,144.783z"/>
		</g>
	</g>
	<g id="Education_x5F_other_00000114761505385225370050000000094343277320560013_">
		<path fill="none" stroke="#000000" stroke-miterlimit="10" d="M188.949,119.074c1.508,5.468,6.606,21.098,21.859,31.785
			c20.564,14.408,44.288,9.115,54.918,5.537"/>
		<g>
			<path d="M271.345,154.203c-2.272,2.003-4.915,4.946-6.27,7.507l-0.102-5.056l-3.312-3.82
				C264.383,153.827,268.317,154.24,271.345,154.203z"/>
		</g>
	</g>
	<g id="Education_x5F_other_00000085933573459501170660000012569872987390680214_">
		<path fill="none" stroke="#000000" stroke-miterlimit="10" d="M275.398,116.244c2.153,2.485,7.602,8.095,16.656,10.863
			c6.337,1.937,12.052,1.753,16.229,1.083"/>
		<g>
			<path d="M314.142,126.744c-2.523,1.676-5.541,4.233-7.231,6.587l0.585-5.023l-2.764-4.234
				C307.295,125.427,311.137,126.37,314.142,126.744z"/>
		</g>
	</g>
	<g id="Education_x5F_other_00000135658456732835639370000014065692953718800802_">
		<path fill="none" stroke="#000000" stroke-miterlimit="10" d="M282.693,100.664c2.397-0.934,7.501-2.553,13.998-1.75
			c3.011,0.372,5.603,1.176,7.721,2.076"/>
		<g>
			<path d="M309.69,103.913c-3-0.419-6.955-0.508-9.781,0.133l3.77-3.371l0.741-5.002C305.44,98.386,307.689,101.64,309.69,103.913z
				"/>
		</g>
	</g>
	<g id="Cornell_x5F_2018_00000155868137570837895390000002943308845333016229_">
		<path fill="none" stroke="#000000" stroke-miterlimit="10" d="M702.315,307.592c-11.805,0.64-36.943,3.603-62.944,20.186
			c-24.468,15.605-37.91,35.752-44.487,47.895"/>
		<g>
			<path d="M592.137,381.044c0.374-3.006,0.403-6.961-0.28-9.777l3.427,3.719l5.012,0.666
				C597.601,376.712,594.381,379.009,592.137,381.044z"/>
		</g>
	</g>
	<g id="Yale_x5F_2019_00000133529287839403841600000002816494622873374384_">
		<path fill="none" stroke="#000000" stroke-miterlimit="10" d="M862.073,306.807c-3.256,1.194-15.307,6.052-22.306,19.12
			c-6.695,12.5-4.743,24.995-2.643,32.054"/>
		<g>
			<path d="M839.236,363.634c-1.952-2.316-4.835-5.024-7.366-6.435l5.057,0.011l3.893-3.227
				C839.766,356.682,839.266,360.606,839.236,363.634z"/>
		</g>
	</g>
	<g id="Pride_x5F_2020_00000138541158741121781440000013862460586486706307_">
		<path fill="none" stroke="#000000" stroke-miterlimit="10" d="M847.94,257.891c3.834,2.246,18.095,11.207,24.429,29.773
			c5.316,15.581,2.138,29.394-0.589,36.968"/>
		<g>
			<path d="M869.423,330.185c0.111-3.027-0.206-6.97-1.131-9.716l3.739,3.406l5.051,0.226
				C874.487,325.393,871.48,327.963,869.423,330.185z"/>
		</g>
	</g>
	<g id="Penn_x5F_2022_00000061456526449191552040000013202841893521307286_">
		<path fill="none" stroke="#000000" stroke-miterlimit="10" d="M428.403,382.057c23.537,3.01,73.321,12.649,122.257,49.868
			c36.254,27.573,57.38,59.132,68.792,79.853"/>
		<g>
			<path d="M622.3,517.096c-2.283-1.991-5.546-4.227-8.262-5.236l5-0.762l3.355-3.783
				C621.763,510.144,621.868,514.099,622.3,517.096z"/>
		</g>
	</g>
	<g id="Seton_x5F_2022_00000034081585693643119270000003144974922514933950_">
		<path fill="none" stroke="#000000" stroke-miterlimit="10" d="M881.751,135.026c3.051,7.931,13.847,33.02,41.654,49.984
			c23.684,14.449,47.032,15.271,59.099,14.539"/>
		<g>
			<path d="M988.511,198.994c-2.742,1.286-6.104,3.371-8.123,5.45l1.319-4.882l-2.109-4.595
				C981.933,196.682,985.594,198.181,988.511,198.994z"/>
		</g>
	</g>
	<g id="Sell_x5F_2022_00000026157891782376021030000007322565571264934295_">
		<path fill="none" stroke="#000000" stroke-miterlimit="10" d="M597.131,99.64c12.078-4.028,31.009-8.375,53.56-5.412
			c5.08,0.667,9.799,1.634,14.129,2.767"/>
		<g>
			<path d="M670.616,98.672c-3.019,0.241-6.899,1.012-9.519,2.25l2.95-4.108l-0.361-5.044
				C665.269,94.197,668.17,96.886,670.616,98.672z"/>
		</g>
	</g>
	<g id="Champs_x5F_2023_00000008833535143990744890000000816620782806707878_">
		<path fill="none" stroke="#000000" stroke-miterlimit="10" d="M948.225,99.798c-5.478,4.737-19.709,15.765-41.336,18.909
			c-16.253,2.363-29.71-0.741-37.991-3.577"/>
		<g>
			<path d="M863.268,112.96c3.029,0.021,6.961-0.411,9.678-1.417l-3.294,3.837l-0.077,5.056
				C868.208,117.881,865.55,114.951,863.268,112.96z"/>
		</g>
	</g>
	<g id="Duke_x5F_2023_00000121247085983768230660000002949620234686518682_">
		<path fill="none" stroke="#000000" stroke-miterlimit="10" d="M175.511,202.607c-8.202-2.268-22.601-8.204-32.008-23.301
			c-10.586-16.989-7.791-34.245-7.017-38.328"/>
		<g>
			<path d="M181.409,203.881c-2.537-1.655-5.576-4.186-7.286-6.526l0.627,5.018l-2.728,4.258
				C174.573,205.256,178.407,204.281,181.409,203.881z"/>
		</g>
	</g>
	<g id="NewEd_x5F_2023_00000035527291885305376030000012576026544808980922_">
		<path fill="none" stroke="#000000" stroke-miterlimit="10" d="M321.869,110.368c-2.077-0.454-16.773-3.409-29.657,6.542
			c-7.2,5.56-10.585,12.641-12.177,17.669"/>
		<g>
			<path d="M278.691,140.462c-0.37-3.006-1.307-6.849-2.656-9.414l4.231,2.771l5.023-0.577
				C282.933,134.927,280.371,137.941,278.691,140.462z"/>
		</g>
	</g>
	
		<circle id="Duke_x5F_2023_00000103232994689250725600000007846337987091813562_" fill="#BE6495" stroke="#BE6495" stroke-width="3" stroke-linecap="round" stroke-linejoin="round" stroke-miterlimit="10" cx="188.345" cy="205.49" r="1.95"/>
	
		<circle id="Education_x5F_2023_00000005228552767964618040000015753821763080132257_" fill="#BE6495" stroke="#BE6495" stroke-width="3" stroke-linecap="round" stroke-linejoin="round" stroke-miterlimit="10" cx="278.205" cy="150.54" r="1.95"/>
	
		<path id="Sell_x5F_2022_00000096023334645137558470000017769729899520787130_" fill="#8F65AC" stroke="#8F65AC" stroke-width="3" stroke-linecap="round" stroke-linejoin="round" stroke-miterlimit="10" d="
		M679.575,99.3c1.077,0,1.95,0.873,1.95,1.95s-0.873,1.95-1.95,1.95s-1.95-0.873-1.95-1.95S678.498,99.3,679.575,99.3"/>
	
		<circle id="Champs_x5F_2023_00000006694262235205893690000011305429512093341568_" fill="#8F65AC" stroke="#8F65AC" stroke-width="3" stroke-linecap="round" stroke-linejoin="round" stroke-miterlimit="10" cx="853.305" cy="109.74" r="1.95"/>
	
		<circle id="Penn_x5F_2022_00000075850293706770682890000016445731461617644181_" fill="#02659D" stroke="#02659D" stroke-width="3" stroke-linecap="round" stroke-linejoin="round" stroke-miterlimit="10" cx="625.665" cy="525.56" r="1.95"/>
	
		<circle id="Seton_x5F_2022_00000043423342482719044380000012206934096921615795_" fill="#02659D" stroke="#02659D" stroke-width="3" stroke-linecap="round" stroke-linejoin="round" stroke-miterlimit="10" cx="997.085" cy="198" r="1.95"/>
	
		<circle id="Education_x5F_2019_00000088816634449687644560000004009005909180991889_" fill="#029D4A" stroke="#029D4A" stroke-width="3" stroke-linecap="round" stroke-linejoin="round" stroke-miterlimit="10" cx="320.145" cy="124.4" r="1.95"/>
	
		<circle id="Pride_x5F_2020_00000175322864223183434370000010790758441326618005_" fill="#029D4A" stroke="#029D4A" stroke-width="3" stroke-linecap="round" stroke-linejoin="round" stroke-miterlimit="10" cx="865.285" cy="337.72" r="1.95"/>
	
		<circle id="Education_x5F_2018_00000065043770824264751080000008579081045655507621_" fill="#CD8D00" stroke="#CD8D00" stroke-width="3" stroke-linecap="round" stroke-linejoin="round" stroke-miterlimit="10" cx="314.155" cy="109.74" r="1.95"/>
	
		<circle id="Yale_x5F_2019_00000176041481725022844720000010900801728533472685_" fill="#CD8D00" stroke="#CD8D00" stroke-width="3" stroke-linecap="round" stroke-linejoin="round" stroke-miterlimit="10" cx="841.325" cy="371.19" r="1.95"/>
	
		<circle id="Education_x5F_2017_00000065774353728106867950000012006585240517797047_" fill="#BE5500" stroke="#BE5500" stroke-width="3" stroke-linecap="round" stroke-linejoin="round" stroke-miterlimit="10" cx="278.205" cy="148.04" r="1.95"/>
	
		<circle id="Cornell_x5F_2018_00000080927849863366181290000015782406885167406525_" fill="#BE5500" stroke="#BE5500" stroke-width="3" stroke-linecap="round" stroke-linejoin="round" stroke-miterlimit="10" cx="589.715" cy="389.67" r="1.95"/>
</g>
<style>
#g-Attendance_plot-Artboard_1-Layer-img rect, #g-Attendance_plot-Artboard_1-Layer-img circle, #g-Attendance_plot-Artboard_1-Layer-img path, #g-Attendance_plot-Artboard_1-Layer-img line, #g-Attendance_plot-Artboard_1-Layer-img polyline, #g-Attendance_plot-Artboard_1-Layer-img polygon { vector-effect: non-scaling-stroke; }
</style>
</svg>

