<?xml version="1.0" encoding="utf-8"?>
<!-- Generator: Adobe Illustrator 26.5.0, SVG Export Plug-In . SVG Version: 6.00 Build 0)  -->
<svg version="1.2" baseProfile="tiny" id="g-Attendance_plot-Artboard_14-Layer-img" xmlns="http://www.w3.org/2000/svg" xmlns:xlink="http://www.w3.org/1999/xlink"
	 x="0px" y="0px" viewBox="0 0 600 355.56" overflow="visible" xml:space="preserve">
<g>
	
		<line fill="none" stroke="#CCCCCC" stroke-width="0.535" stroke-linejoin="round" stroke-miterlimit="10" x1="55.923" y1="43.592" x2="524.613" y2="43.592"/>
	
		<line fill="none" stroke="#CCCCCC" stroke-width="0.535" stroke-linejoin="round" stroke-miterlimit="10" x1="55.923" y1="75.267" x2="524.613" y2="75.267"/>
	
		<line fill="none" stroke="#CCCCCC" stroke-width="0.535" stroke-linejoin="round" stroke-miterlimit="10" x1="55.923" y1="108.577" x2="524.613" y2="108.577"/>
	
		<line fill="none" stroke="#CCCCCC" stroke-width="0.535" stroke-linejoin="round" stroke-miterlimit="10" x1="55.923" y1="141.887" x2="524.613" y2="141.887"/>
	
		<line fill="none" stroke="#CCCCCC" stroke-width="0.535" stroke-linejoin="round" stroke-miterlimit="10" x1="55.923" y1="175.192" x2="524.613" y2="175.192"/>
	
		<line fill="none" stroke="#CCCCCC" stroke-width="0.535" stroke-linejoin="round" stroke-miterlimit="10" x1="55.923" y1="208.502" x2="524.613" y2="208.502"/>
	
		<line fill="none" stroke="#CCCCCC" stroke-width="0.535" stroke-linejoin="round" stroke-miterlimit="10" x1="55.923" y1="241.812" x2="524.613" y2="241.812"/>
	
		<polyline id="Attendance_x5F_2017_00000070111849104619378330000016934459273673890198_" fill="none" stroke="#BE5500" stroke-linecap="round" stroke-linejoin="round" stroke-miterlimit="10" points="
		92.228,240.312 143.238,77.602 164.243,253.717 173.248,244.227 179.248,248.057 299.273,198.427 359.283,240.812 362.283,232.487 
		380.288,235.817 383.288,236.067 428.298,228.902 431.298,246.057 	"/>
	
		<polyline id="Attendance_x5F_2018_00000144337206866975200540000012419892911430562736_" fill="none" stroke="#CD8D00" stroke-linecap="round" stroke-linejoin="round" stroke-miterlimit="10" points="
		92.228,243.642 119.233,246.142 161.243,58.447 233.258,229.152 245.258,245.477 317.273,191.682 335.278,232.567 338.278,215.747 
		356.283,231.237 359.283,214.082 422.293,219.577 425.298,189.182 	"/>
	
		<polyline id="Attendance_x5F_2019_00000138540742475418266700000010882202921002001537_" fill="none" stroke="#029D4A" stroke-linecap="round" stroke-linejoin="round" stroke-miterlimit="10" points="
		77.228,245.892 86.228,232.402 146.243,245.057 164.243,65.777 173.248,245.392 209.253,244.227 251.263,226.237 293.268,206.752 
		332.278,211.917 335.278,218.327 374.288,243.562 377.288,201.922 437.298,172.447 440.298,186.437 	"/>
	
		<polyline id="Attendance_x5F_2021_00000119081911666479539170000016763826936097976476_" fill="none" stroke="#02659D" stroke-linecap="round" stroke-linejoin="round" stroke-miterlimit="10" points="
		83.228,240.812 128.238,244.062 152.243,230.817 179.248,218.827 185.248,245.557 317.273,266.377 386.288,189.932 
		389.288,198.677 401.293,115.822 410.293,215.412 467.303,232.487 491.308,185.602 503.313,102.582 	"/>
	
		<polyline id="Attendance_x5F_2022_00000026865543170876285330000015771378729872325807_" fill="none" stroke="#8F65AC" stroke-linecap="round" stroke-linejoin="round" stroke-miterlimit="10" points="
		95.228,199.092 149.243,242.392 155.243,236.482 230.258,227.487 281.268,181.272 302.273,177.942 323.273,163.952 341.278,99.332 
		344.278,54.202 365.283,151.462 431.298,58.447 470.303,225.742 479.308,193.932 491.308,147.132 497.308,134.472 	"/>
	
		<polyline id="Attendance_x5F_2023_00000029732142196290580000000009310317251650447498_" fill="none" stroke="#BE6495" stroke-linecap="round" stroke-linejoin="round" stroke-miterlimit="10" points="
		86.228,190.932 98.233,106.327 104.233,231.487 131.238,200.507 143.238,78.847 155.243,189.852 164.243,199.592 176.248,198.177 
		257.263,175.027 	"/>
	<rect x="34.393" y="40.852" fill="none" width="540" height="252"/>
	
		<line fill="none" stroke="#333333" stroke-width="0.535" stroke-linejoin="round" stroke-miterlimit="10" x1="54.553" y1="275.122" x2="55.923" y2="275.122"/>
	
		<line fill="none" stroke="#000000" stroke-width="0.535" stroke-linejoin="round" stroke-miterlimit="10" x1="55.923" y1="275.122" x2="524.613" y2="275.122"/>
	
		<line fill="none" stroke="#333333" stroke-width="0.535" stroke-linejoin="round" stroke-miterlimit="10" x1="59.223" y1="278.357" x2="59.223" y2="275.122"/>
	
		<line fill="none" stroke="#333333" stroke-width="0.535" stroke-linejoin="round" stroke-miterlimit="10" x1="149.243" y1="278.357" x2="149.243" y2="275.122"/>
	
		<line fill="none" stroke="#333333" stroke-width="0.535" stroke-linejoin="round" stroke-miterlimit="10" x1="242.258" y1="278.357" x2="242.258" y2="275.122"/>
	
		<line fill="none" stroke="#333333" stroke-width="0.535" stroke-linejoin="round" stroke-miterlimit="10" x1="335.278" y1="278.357" x2="335.278" y2="275.122"/>
	
		<line fill="none" stroke="#333333" stroke-width="0.535" stroke-linejoin="round" stroke-miterlimit="10" x1="422.293" y1="278.357" x2="422.293" y2="275.122"/>
	
		<line fill="none" stroke="#333333" stroke-width="0.535" stroke-linejoin="round" stroke-miterlimit="10" x1="515.313" y1="278.357" x2="515.313" y2="275.122"/>
	
		<rect id="Legend_x5F_2017_00000120531990755744231750000016522242344336847489_" x="539.509" y="48.828" fill="#BE5500" width="9.75" height="9.75"/>
	
		<rect id="Legend_x5F_2018_00000081640119110831268910000014695511881898998433_" x="539.509" y="62.153" fill="#CD8D00" width="9.75" height="9.75"/>
	
		<rect id="Legend_x5F_2019_00000158017716564414782540000008366319008766338994_" x="539.509" y="75.478" fill="#029D4A" width="9.75" height="9.75"/>
	
		<rect id="Legend_x5F_2021_00000003064566899531838530000000580030316870209716_" x="539.509" y="88.803" fill="#02659D" width="9.75" height="9.75"/>
	
		<rect id="Legend_x5F_2022_00000058557409063360717020000007995192693652096440_" x="539.509" y="102.128" fill="#8F65AC" width="9.75" height="9.75"/>
	
		<rect id="Legend_x5F_2023_00000026881031217858371510000013756616613528344704_" x="539.509" y="115.453" fill="#BE6495" width="9.75" height="9.75"/>
	<g id="Education_x5F_2017_x5F_arrow_00000137841131618431475630000018041516692637906832_">
		<path fill="none" stroke="#000000" stroke-width="0.5" stroke-miterlimit="10" d="M120.05,62.763
			c0.639,1.908,1.951,4.908,4.692,7.64c4.057,4.044,9.004,5.269,12.212,5.626"/>
		<g>
			<path d="M139.965,76.16c-1.447,0.449-3.255,1.25-4.397,2.141l0.989-2.327l-0.729-2.421
				C136.866,74.563,138.576,75.557,139.965,76.16z"/>
		</g>
	</g>
	<g id="Education_x5F_other_00000182520029886418749840000000683675680555912832_">
		<path fill="none" stroke="#000000" stroke-width="0.5" stroke-miterlimit="10" d="M98.867,63.306
			c0.754,2.734,3.303,10.549,10.93,15.892c10.283,7.205,22.146,4.557,27.46,2.768"/>
		<g>
			<path d="M140.066,80.871c-1.136,1.001-2.458,2.473-3.135,3.754l-0.051-2.528l-1.656-1.91
				C136.585,80.682,138.552,80.889,140.066,80.871z"/>
		</g>
	</g>
	<g id="Education_x5F_other_00000086690758950837811290000006599664710436279967_">
		<path fill="none" stroke="#000000" stroke-width="0.5" stroke-miterlimit="10" d="M142.092,61.891
			c1.076,1.242,3.801,4.047,8.328,5.431c3.169,0.969,6.027,0.876,8.115,0.541"/>
		<g>
			<path d="M161.464,67.141c-1.269,0.826-2.79,2.091-3.646,3.26l0.316-2.509l-1.362-2.13
				C158.047,66.451,159.963,66.94,161.464,67.141z"/>
		</g>
	</g>
	<g id="Education_x5F_other_00000076581193367665059230000008617788113700699050_">
		<path fill="none" stroke="#000000" stroke-width="0.5" stroke-miterlimit="10" d="M145.74,54.101
			c1.199-0.467,3.75-1.277,6.999-0.875c1.505,0.186,2.8,0.588,3.86,1.038"/>
		<g>
			<path d="M159.238,55.726c-1.501-0.202-3.479-0.236-4.89,0.092l1.876-1.695l0.357-2.503
				C157.099,52.973,158.232,54.594,159.238,55.726z"/>
		</g>
	</g>
	<g id="Cornell_x5F_2018_00000126325596088041797740000010191241836729486215_">
		<path fill="none" stroke="#000000" stroke-width="0.5" stroke-miterlimit="10" d="M355.551,157.565
			c-5.903,0.32-18.471,1.801-31.472,10.093c-12.236,7.804-18.957,17.879-22.245,23.95"/>
		<g>
			<path d="M300.462,194.291c0.21-1.5,0.255-3.477-0.064-4.89l1.685,1.886l2.501,0.371
				C303.227,192.167,301.599,193.291,300.462,194.291z"/>
		</g>
	</g>
	<g id="Yale_x5F_2019_00000108994751004866737340000011639830696535525524_">
		<path fill="none" stroke="#000000" stroke-width="0.5" stroke-miterlimit="10" d="M435.43,157.172
			c-1.628,0.597-7.653,3.026-11.153,9.56c-3.349,6.252-2.371,12.501-1.321,16.03"/>
		<g>
			<path d="M424.011,185.586c-0.976-1.158-2.418-2.512-3.683-3.218l2.529,0.005l1.946-1.613
				C424.276,182.11,424.026,184.072,424.011,185.586z"/>
		</g>
	</g>
	<g id="Pride_x5F_2020_00000064331168943238794120000015993169371200203427_">
		<path fill="none" stroke="#000000" stroke-width="0.5" stroke-miterlimit="10" d="M428.363,132.714
			c1.917,1.123,9.047,5.604,12.215,14.887c2.658,7.79,1.069,14.697-0.295,18.484"/>
		<g>
			<path d="M439.104,168.861c0.055-1.513-0.103-3.485-0.566-4.858l1.869,1.703l2.526,0.113
				C441.637,166.465,440.133,167.75,439.104,168.861z"/>
		</g>
	</g>
	<g id="Penn_x5F_2022_00000156559812215812630310000011372245164866197424_">
		<path fill="none" stroke="#000000" stroke-width="0.5" stroke-miterlimit="10" d="M218.595,194.798
			c11.768,1.505,36.661,6.324,61.129,24.934c18.128,13.788,28.692,29.569,34.397,39.929"/>
		<g>
			<path d="M315.543,262.317c-1.141-0.996-2.773-2.114-4.131-2.618l2.5-0.381l1.677-1.892
				C315.275,258.841,315.327,260.818,315.543,262.317z"/>
		</g>
	</g>
	<g id="Seton_x5F_2022_00000045577872969134752030000018137264103450584460_">
		<path fill="none" stroke="#000000" stroke-width="0.5" stroke-miterlimit="10" d="M450.792,81.722
			c1.368,2.686,6.207,11.183,18.672,16.928c10.414,4.8,20.683,5.159,26.177,4.937"/>
		<g>
			<path d="M498.649,103.385c-1.389,0.605-3.098,1.6-4.135,2.611l0.727-2.422l-0.991-2.326
				C495.393,102.139,497.202,102.938,498.649,103.385z"/>
		</g>
	</g>
	<g id="Sell_x5F_2022_00000000944640777056019670000016820682172519475612_">
		<path fill="none" stroke="#000000" stroke-width="0.5" stroke-miterlimit="10" d="M302.959,53.589
			c6.039-2.014,15.504-4.187,26.78-2.706c2.54,0.334,4.9,0.817,7.065,1.383"/>
		<g>
			<path d="M339.701,53.105c-1.508,0.135-3.445,0.539-4.749,1.17l1.455-2.068l-0.205-2.52
				C337.006,50.893,338.47,52.224,339.701,53.105z"/>
		</g>
	</g>
	<g id="Champs_x5F_2023_00000011737370842953270460000011425744844457455771_">
		<path fill="none" stroke="#000000" stroke-width="0.5" stroke-miterlimit="10" d="M478.506,53.668
			c-2.739,2.369-9.855,7.882-20.668,9.454c-8.129,1.182-14.859-0.372-18.999-1.79"/>
		<g>
			<path d="M436.027,60.249c1.515,0.008,3.48-0.212,4.838-0.717l-1.644,1.922l-0.034,2.528
				C438.501,62.705,437.17,61.242,436.027,60.249z"/>
		</g>
	</g>
	<g id="Duke_x5F_2023_00000126316325537290896850000008139876266585557178_">
		<path fill="none" stroke="#000000" stroke-width="0.5" stroke-miterlimit="10" d="M92.15,105.073
			c-4.101-1.134-11.301-4.101-16.006-11.651c-5.293-8.494-3.896-17.123-3.508-19.164"/>
		<g>
			<path d="M95.098,105.71c-1.268-0.827-2.788-2.093-3.643-3.263l0.314,2.509l-1.364,2.129
				C91.68,106.397,93.597,105.909,95.098,105.71z"/>
		</g>
	</g>
	<g id="NewEd_x5F_2023_00000128455304609791810860000004515696949409224890_">
		<path fill="none" stroke="#000000" stroke-width="0.5" stroke-miterlimit="10" d="M165.328,58.953
			c-1.038-0.227-8.386-1.704-14.829,3.271c-3.601,2.781-5.293,6.322-6.089,8.837"/>
		<g>
			<path d="M143.739,74c-0.185-1.503-0.654-3.425-1.328-4.707l2.115,1.385l2.512-0.289C145.859,71.233,144.578,72.74,143.739,74z"/>
		</g>
	</g>
	
		<circle id="Duke_x5F_2023_00000152266640641232265260000006219303148176510885_" fill="#BE6495" stroke="#BE6495" stroke-width="4" stroke-linecap="round" stroke-linejoin="round" stroke-miterlimit="10" cx="98.566" cy="106.514" r="0.975"/>
	
		<path id="Sell_x5F_2022_00000122706192401263954650000010160979278905039035_" fill="#8F65AC" stroke="#8F65AC" stroke-width="4" stroke-linecap="round" stroke-linejoin="round" stroke-miterlimit="10" d="
		M344.181,53.419c0.538,0,0.975,0.437,0.975,0.975c0,0.538-0.437,0.975-0.975,0.975s-0.975-0.437-0.975-0.975
		C343.206,53.855,343.642,53.419,344.181,53.419"/>
	
		<circle id="Champs_x5F_2023_00000114047750706160146770000005048076724351959736_" fill="#8F65AC" stroke="#8F65AC" stroke-width="4" stroke-linecap="round" stroke-linejoin="round" stroke-miterlimit="10" cx="431.046" cy="58.639" r="0.975"/>
	
		<circle id="Penn_x5F_2022_00000119820260188704802940000016691512220604289724_" fill="#02659D" stroke="#02659D" stroke-width="4" stroke-linecap="round" stroke-linejoin="round" stroke-miterlimit="10" cx="317.226" cy="266.549" r="0.975"/>
	
		<circle id="Seton_x5F_2022_00000124868868583113055470000003677415184088607379_" fill="#02659D" stroke="#02659D" stroke-width="4" stroke-linecap="round" stroke-linejoin="round" stroke-miterlimit="10" cx="502.936" cy="102.769" r="0.975"/>
	
		<circle id="Education_x5F_2019_00000054948672150574974350000013838233400200307104_" fill="#029D4A" stroke="#029D4A" stroke-width="4" stroke-linecap="round" stroke-linejoin="round" stroke-miterlimit="10" cx="164.466" cy="65.969" r="0.975"/>
	
		<circle id="Pride_x5F_2020_00000151544074875993549050000006647126684222200212_" fill="#029D4A" stroke="#029D4A" stroke-width="4" stroke-linecap="round" stroke-linejoin="round" stroke-miterlimit="10" cx="437.036" cy="172.629" r="0.975"/>
	
		<circle id="Education_x5F_2018_00000004525216778160885470000012488576603533631924_" fill="#CD8D00" stroke="#CD8D00" stroke-width="4" stroke-linecap="round" stroke-linejoin="round" stroke-miterlimit="10" cx="161.471" cy="58.639" r="0.975"/>
	
		<circle id="Yale_x5F_2019_00000101813810323168476420000013010588256266498726_" fill="#CD8D00" stroke="#CD8D00" stroke-width="4" stroke-linecap="round" stroke-linejoin="round" stroke-miterlimit="10" cx="425.056" cy="189.364" r="0.975"/>
	
		<circle id="Education_x5F_2017_00000181772457194097331670000015640176577273427103_" fill="#BE5500" stroke="#BE5500" stroke-width="4" stroke-linecap="round" stroke-linejoin="round" stroke-miterlimit="10" cx="143.496" cy="77.789" r="0.975"/>
	
		<circle id="Cornell_x5F_2018_00000078735351427454162520000011141003633515294630_" fill="#BE5500" stroke="#BE5500" stroke-width="4" stroke-linecap="round" stroke-linejoin="round" stroke-miterlimit="10" cx="299.251" cy="198.604" r="0.975"/>
	
		<circle id="Education_x5F_2023_00000150813806401890329930000018007342607889897650_" fill="#BE6495" stroke="#BE6495" stroke-width="4" stroke-linecap="round" stroke-linejoin="round" stroke-miterlimit="10" cx="143.496" cy="79.039" r="0.975"/>
</g>
<style>
#g-Attendance_plot-Artboard_14-Layer-img rect, #g-Attendance_plot-Artboard_14-Layer-img circle, #g-Attendance_plot-Artboard_14-Layer-img path, #g-Attendance_plot-Artboard_14-Layer-img line, #g-Attendance_plot-Artboard_14-Layer-img polyline, #g-Attendance_plot-Artboard_14-Layer-img polygon { vector-effect: non-scaling-stroke; }
</style>
</svg>

